<?xml version="1.0" encoding="utf-8"?>
<svg width="586px" height="249px" viewBox="0 0 586 249" version="1.1" xmlns:xlink="http://www.w3.org/1999/xlink" xmlns="http://www.w3.org/2000/svg">
  <defs>
    <path d="M0 0L122 0L122 122L0 122L0 0Z" transform="translate(233 127)" id="path_1" />
    <clipPath id="mask_1">
      <use xlink:href="#path_1" />
    </clipPath>
  </defs>
  <g id="Group-12">
    <path d="M93.999 0L492.001 0Q494.309 0 496.613 0.113226Q498.918 0.226452 501.215 0.452631Q503.511 0.67881 505.793 1.0174Q508.076 1.35598 510.339 1.80616Q512.602 2.25634 514.841 2.81703Q517.079 3.37772 519.287 4.04756Q521.496 4.71741 523.668 5.4948Q525.841 6.27219 527.973 7.15525Q530.105 8.03831 532.191 9.02491Q534.277 10.0115 536.312 11.0993Q538.347 12.1871 540.326 13.3734Q542.305 14.5597 544.224 15.8417Q546.143 17.1237 547.996 18.4983Q549.849 19.8729 551.633 21.3368Q553.417 22.8007 555.127 24.3503Q556.837 25.9 558.468 27.5317Q560.1 29.1633 561.65 30.8731Q563.199 32.5829 564.663 34.3667Q566.127 36.1504 567.502 38.0039Q568.876 39.8573 570.158 41.7759Q571.44 43.6946 572.626 45.6739Q573.813 47.6531 574.901 49.6882Q575.988 51.7232 576.975 53.8092Q577.961 55.8952 578.845 58.0271Q579.728 60.159 580.505 62.3317Q581.282 64.5043 581.952 66.7125Q582.622 68.9207 583.183 71.1591Q583.744 73.3975 584.194 75.6607Q584.644 77.9239 584.982 80.2065Q585.321 82.4891 585.547 84.7855Q585.773 87.0819 585.887 89.3867Q586 91.6915 586 93.999L586 94.001Q586 96.3085 585.887 98.6133Q585.773 100.918 585.547 103.215Q585.321 105.511 584.983 107.794Q584.644 110.076 584.194 112.339Q583.744 114.602 583.183 116.841Q582.622 119.079 581.952 121.287Q581.282 123.496 580.505 125.668Q579.728 127.841 578.845 129.973Q577.961 132.105 576.975 134.191Q575.988 136.277 574.901 138.312Q573.813 140.347 572.626 142.326Q571.44 144.305 570.158 146.224Q568.876 148.143 567.502 149.996Q566.127 151.85 564.663 153.633Q563.199 155.417 561.65 157.127Q560.1 158.837 558.468 160.468Q556.837 162.1 555.127 163.65Q553.417 165.199 551.633 166.663Q549.849 168.127 547.996 169.502Q546.143 170.876 544.224 172.158Q542.305 173.44 540.326 174.627Q538.347 175.813 536.312 176.901Q534.277 177.988 532.191 178.975Q530.105 179.962 527.973 180.845Q525.841 181.728 523.668 182.505Q521.496 183.283 519.287 183.952Q517.079 184.622 514.841 185.183Q512.602 185.744 510.339 186.194Q508.076 186.644 505.793 186.983Q503.511 187.321 501.215 187.547Q498.918 187.774 496.613 187.887Q494.309 188 492.001 188L93.999 188Q91.6915 188 89.3867 187.887Q87.0819 187.774 84.7855 187.547Q82.4891 187.321 80.2065 186.983Q77.9239 186.644 75.6607 186.194Q73.3975 185.744 71.1591 185.183Q68.9207 184.622 66.7125 183.952Q64.5043 183.283 62.3317 182.505Q60.159 181.728 58.0271 180.845Q55.8952 179.962 53.8092 178.975Q51.7232 177.988 49.6882 176.901Q47.6531 175.813 45.6739 174.627Q43.6946 173.44 41.7759 172.158Q39.8573 170.876 38.0039 169.502Q36.1504 168.127 34.3667 166.663Q32.5829 165.199 30.8731 163.65Q29.1633 162.1 27.5317 160.468Q25.9 158.837 24.3503 157.127Q22.8007 155.417 21.3368 153.633Q19.8729 151.85 18.4983 149.996Q17.1237 148.143 15.8417 146.224Q14.5597 144.305 13.3734 142.326Q12.1871 140.347 11.0993 138.312Q10.0115 136.277 9.02491 134.191Q8.03831 132.105 7.15525 129.973Q6.27219 127.841 5.4948 125.668Q4.71741 123.496 4.04756 121.287Q3.37772 119.079 2.81703 116.841Q2.25634 114.602 1.80616 112.339Q1.35598 110.076 1.0174 107.794Q0.67881 105.511 0.452631 103.215Q0.226452 100.918 0.113226 98.6133Q0 96.3085 0 94.001L0 93.999Q0 91.6915 0.113226 89.3867Q0.226452 87.0819 0.452631 84.7855Q0.67881 82.4891 1.0174 80.2065Q1.35598 77.9239 1.80616 75.6607Q2.25634 73.3975 2.81703 71.1591Q3.37772 68.9207 4.04756 66.7125Q4.71741 64.5043 5.4948 62.3317Q6.27219 60.159 7.15525 58.0271Q8.03831 55.8952 9.02491 53.8092Q10.0115 51.7232 11.0993 49.6882Q12.1871 47.6531 13.3734 45.6739Q14.5597 43.6946 15.8417 41.7759Q17.1237 39.8573 18.4983 38.0039Q19.8729 36.1504 21.3368 34.3667Q22.8007 32.5829 24.3503 30.8731Q25.9 29.1633 27.5317 27.5317Q29.1633 25.9 30.8731 24.3503Q32.5829 22.8007 34.3667 21.3368Q36.1504 19.8729 38.0039 18.4983Q39.8573 17.1237 41.7759 15.8417Q43.6946 14.5597 45.6739 13.3734Q47.6531 12.1871 49.6882 11.0993Q51.7232 10.0115 53.8092 9.02491Q55.8952 8.03831 58.0271 7.15525Q60.159 6.27219 62.3317 5.4948Q64.5043 4.71741 66.7125 4.04756Q68.9207 3.37772 71.1591 2.81703Q73.3975 2.25634 75.6607 1.80616Q77.9239 1.35598 80.2065 1.0174Q82.4891 0.67881 84.7855 0.452631Q87.0819 0.226452 89.3867 0.113226Q91.6915 0 93.999 0Z" id="Rectangle" fill="#0055FF" fill-rule="evenodd" stroke="none" />
    <g id="Download-Now" fill="#FFFFFF" transform="translate(78 58)">
      <path d="M18.75 58.3182L5.28409 58.3182L5.28409 14.6818L19.3466 14.6818Q25.696 14.6818 30.2131 17.2919Q34.7301 19.902 37.1378 24.7706Q39.5455 29.6392 39.5455 36.4148Q39.5455 43.233 37.1165 48.1442Q34.6875 53.0554 30.0426 55.6868Q25.3977 58.3182 18.75 58.3182ZM172.415 58.3182L172.415 14.6818L167.386 14.6818L167.386 58.3182L172.415 58.3182ZM263.608 59Q259.517 59 256.385 56.9226Q253.253 54.8452 251.484 51.0419Q249.716 47.2386 249.716 42.0398Q249.716 36.8835 251.484 33.0909Q253.253 29.2983 256.406 27.2315Q259.56 25.1648 263.693 25.1648Q266.889 25.1648 268.754 26.2195Q270.618 27.2742 271.609 28.6058Q272.599 29.9375 273.153 30.7898L273.58 30.7898L273.58 14.6818L278.608 14.6818L278.608 58.3182L273.75 58.3182L273.75 53.2898L273.153 53.2898Q272.599 54.1847 271.577 55.5376Q270.554 56.8906 268.658 57.9453Q266.761 59 263.608 59ZM340.653 58.3182L340.653 14.6818L335.455 14.6818L335.455 49.0284L335.028 49.0284L311.165 14.6818L306.051 14.6818L306.051 58.3182L311.335 58.3182L311.335 24.0568L311.761 24.0568L335.54 58.3182L340.653 58.3182ZM10.5682 53.6307L18.4091 53.6307Q26.527 53.6307 30.4794 49.0178Q34.4318 44.4048 34.4318 36.4148Q34.4318 28.4886 30.554 23.929Q26.6761 19.3693 19.0057 19.3693L10.5682 19.3693L10.5682 53.6307ZM61.0227 59Q56.5909 59 53.2564 56.8906Q49.9219 54.7813 48.0575 50.9886Q46.1932 47.196 46.1932 42.125Q46.1932 37.0114 48.0575 33.1974Q49.9219 29.3835 53.2564 27.2742Q56.5909 25.1648 61.0227 25.1648Q65.4545 25.1648 68.7891 27.2742Q72.1236 29.3835 73.9879 33.1974Q75.8523 37.0114 75.8523 42.125Q75.8523 47.196 73.9879 50.9886Q72.1236 54.7813 68.7891 56.8906Q65.4545 59 61.0227 59ZM137.301 38.6307L137.301 58.3182L132.273 58.3182L132.273 25.5909L137.131 25.5909L137.131 30.7045L137.557 30.7045Q138.707 28.2117 141.051 26.6882Q143.395 25.1648 147.102 25.1648Q152.067 25.1648 155.124 28.2117Q158.182 31.2585 158.182 37.5227L158.182 58.3182L153.153 58.3182L153.153 37.8636Q153.153 34.0071 151.151 31.8445Q149.148 29.6818 145.653 29.6818Q142.053 29.6818 139.677 32.0149Q137.301 34.348 137.301 38.6307ZM194.915 59Q190.483 59 187.148 56.8906Q183.814 54.7813 181.95 50.9886Q180.085 47.196 180.085 42.125Q180.085 37.0114 181.95 33.1974Q183.814 29.3835 187.148 27.2742Q190.483 25.1648 194.915 25.1648Q199.347 25.1648 202.681 27.2742Q206.016 29.3835 207.88 33.1974Q209.744 37.0114 209.744 42.125Q209.744 47.196 207.88 50.9886Q206.016 54.7813 202.681 56.8906Q199.347 59 194.915 59ZM221.399 57.9027Q223.935 59.0852 227.045 59.0852Q229.901 59.0852 231.882 58.233Q233.864 57.3807 235.057 56.1662Q236.25 54.9517 236.761 53.8864L237.017 53.8864L237.017 58.3182L242.045 58.3182L242.045 36.7557Q242.045 32.8565 240.767 30.5341Q239.489 28.2117 237.56 27.0611Q235.632 25.9105 233.576 25.5376Q231.52 25.1648 229.943 25.1648Q227.472 25.1648 224.925 25.8359Q222.379 26.5071 220.238 28.1797Q218.097 29.8523 216.818 32.8352L221.591 34.5398Q222.422 32.75 224.467 31.1733Q226.513 29.5966 230.114 29.5966Q233.587 29.5966 235.302 31.3438Q237.017 33.0909 237.017 36.2443L237.017 36.4148Q237.017 37.6293 236.154 38.1193Q235.291 38.6094 233.427 38.8118Q231.563 39.0142 228.58 39.3977Q226.3 39.696 224.052 40.1967Q221.804 40.6974 219.95 41.6989Q218.097 42.7003 216.989 44.4581Q215.881 46.2159 215.881 49.0284Q215.881 52.2244 217.372 54.4723Q218.864 56.7202 221.399 57.9027ZM363.835 59Q359.403 59 356.069 56.8906Q352.734 54.7813 350.87 50.9886Q349.006 47.196 349.006 42.125Q349.006 37.0114 350.87 33.1974Q352.734 29.3835 356.069 27.2742Q359.403 25.1648 363.835 25.1648Q368.267 25.1648 371.602 27.2742Q374.936 29.3835 376.8 33.1974Q378.665 37.0114 378.665 42.125Q378.665 47.196 376.8 50.9886Q374.936 54.7813 371.602 56.8906Q368.267 59 363.835 59ZM80.9659 25.5909L90.9375 58.3182L95.8807 58.3182L103.04 33.1761L103.551 33.1761L110.71 58.3182L115.653 58.3182L125.625 25.5909L120.341 25.5909L113.267 50.5625L112.926 50.5625L106.023 25.5909L100.653 25.5909L93.6648 50.6477L93.3239 50.6477L86.25 25.5909L80.9659 25.5909ZM389.063 25.5909L383.778 25.5909L393.75 58.3182L398.693 58.3182L405.852 33.1761L406.364 33.1761L413.523 58.3182L418.466 58.3182L428.438 25.5909L423.153 25.5909L416.08 50.5625L415.739 50.5625L408.835 25.5909L403.466 25.5909L396.477 50.6477L396.136 50.6477L389.063 25.5909ZM61.0227 54.483Q64.3892 54.483 66.5625 52.7571Q68.7358 51.0313 69.7798 48.2188Q70.8239 45.4063 70.8239 42.125Q70.8239 38.8438 69.7798 36.0099Q68.7358 33.1761 66.5625 31.429Q64.3892 29.6818 61.0227 29.6818Q57.6563 29.6818 55.483 31.429Q53.3097 33.1761 52.2656 36.0099Q51.2216 38.8438 51.2216 42.125Q51.2216 45.4063 52.2656 48.2188Q53.3097 51.0313 55.483 52.7571Q57.6563 54.483 61.0227 54.483ZM194.915 54.483Q198.281 54.483 200.455 52.7571Q202.628 51.0313 203.672 48.2188Q204.716 45.4063 204.716 42.125Q204.716 38.8438 203.672 36.0099Q202.628 33.1761 200.455 31.429Q198.281 29.6818 194.915 29.6818Q191.548 29.6818 189.375 31.429Q187.202 33.1761 186.158 36.0099Q185.114 38.8438 185.114 42.125Q185.114 45.4063 186.158 48.2188Q187.202 51.0313 189.375 52.7571Q191.548 54.483 194.915 54.483ZM264.29 54.483Q268.828 54.483 271.246 50.9993Q273.665 47.5156 273.665 41.9545Q273.665 36.4574 271.278 33.0696Q268.892 29.6818 264.29 29.6818Q261.094 29.6818 258.974 31.3118Q256.854 32.9418 255.799 35.7223Q254.744 38.5028 254.744 41.9545Q254.744 45.4489 255.82 48.2933Q256.896 51.1378 259.016 52.8104Q261.136 54.483 264.29 54.483ZM363.835 54.483Q367.202 54.483 369.375 52.7571Q371.548 51.0313 372.592 48.2188Q373.636 45.4063 373.636 42.125Q373.636 38.8438 372.592 36.0099Q371.548 33.1761 369.375 31.429Q367.202 29.6818 363.835 29.6818Q360.469 29.6818 358.295 31.429Q356.122 33.1761 355.078 36.0099Q354.034 38.8438 354.034 42.125Q354.034 45.4063 355.078 48.2188Q356.122 51.0313 358.295 52.7571Q360.469 54.483 363.835 54.483ZM232.852 53.3963Q230.795 54.5682 227.813 54.5682Q224.808 54.5682 222.859 53.2365Q220.909 51.9048 220.909 49.2841Q220.909 47.3665 221.942 46.2479Q222.976 45.1293 224.67 44.5646Q226.364 44 228.324 43.7443Q229.134 43.6378 230.444 43.478Q231.754 43.3182 233.15 43.0945Q234.545 42.8707 235.621 42.5618Q236.697 42.2528 237.017 41.8693L237.017 46.4716Q237.017 48.517 235.962 50.3707Q234.908 52.2244 232.852 53.3963Z" />
    </g>
    <path d="M0 0L122 0L122 122L0 122L0 0Z" transform="translate(233 127)" id="Background" fill="none" fill-rule="evenodd" stroke="none" />
    <g clip-path="url(#mask_1)">
      <path d="M88.9583 25.4167C87.9417 25.4167 86.925 25.4167 85.9083 25.925C83.875 11.1833 71.1667 0 55.9167 0C44.7333 0 34.5667 6.1 29.4833 15.25C28.975 15.25 28.4667 15.25 27.9583 15.25C12.7083 15.25 0 27.9583 0 43.2083C0 58.4583 12.7083 71.1667 27.9583 71.1667L88.9583 71.1667C101.667 71.1667 111.833 61 111.833 48.2917C111.833 35.5833 101.667 25.4167 88.9583 25.4167L88.9583 25.4167Z" transform="translate(238.08301 147.7168)" id="Shape" fill="#FFFFFF" fill-opacity="0.3" fill-rule="evenodd" stroke="none" />
      <path d="M20.3333 40.6667L0 20.3333L15.25 20.3333L15.25 0L25.4167 0L25.4167 20.3333L40.6667 20.3333L20.3333 40.6667L20.3333 40.6667Z" transform="translate(272.66675 172.33325)" id="Shape" fill="#FFFFFF" fill-rule="evenodd" stroke="none" />
      <path d="M94.0417 81.3333L33.0417 81.3333C14.7417 81.3333 0 66.5917 0 48.2917C0 30.5 14.2333 15.7583 32.025 15.25C38.6333 5.59167 49.3083 0 61 0C76.7583 0 90.4833 10.675 95.0583 25.4167C109.8 25.925 122 38.125 122 53.375C122 57.2582 121.176 60.9767 119.696 64.3624C115.363 74.273 105.408 81.3333 94.0417 81.3333L94.0417 81.3333ZM33.0417 25.4167C20.3334 25.4167 10.1667 35.5834 10.1667 48.2917C10.1667 61.0001 20.3334 71.1667 33.0417 71.1667L94.0417 71.1667C103.7 71.1667 111.833 63.0334 111.833 53.3751C111.833 43.7168 103.7 35.5834 94.0417 35.5834C93.5334 35.5834 93.0251 35.5834 92.5168 35.5834L86.9251 36.0918L85.9084 31.0084C83.8751 19.3167 73.7084 10.1667 61.0001 10.1667C51.8501 10.1667 43.7167 15.2501 39.1417 22.8751L37.6167 25.4167L33.0417 25.4167L33.0417 25.4167Z" transform="translate(233 147.33325)" id="Shape" fill="#DBDBDB" fill-rule="evenodd" stroke="none" />
    </g>
  </g>
</svg>