<svg xmlns="http://www.w3.org/2000/svg" width="22" height="22" viewBox="0 0 22 22">
  <g id="Group_254" data-name="Group 254" transform="translate(-5 -5)">
    <path id="Path_46" data-name="Path 46" d="M20.4,16l5.657-5.657a3.038,3.038,0,0,0,0-4.4,3.038,3.038,0,0,0-4.4,0L16,11.6,10.343,5.943a3.038,3.038,0,0,0-4.4,0,3.038,3.038,0,0,0,0,4.4L11.6,16,5.943,21.657a3.038,3.038,0,0,0,0,4.4,3.038,3.038,0,0,0,4.4,0L16,20.4l5.657,5.657a3.038,3.038,0,0,0,4.4,0,3.038,3.038,0,0,0,0-4.4Z" transform="translate(0 0)" fill="#fff"/>
  </g>
</svg>
