<svg xmlns="http://www.w3.org/2000/svg" width="282" height="230" viewBox="0 0 282 230">
  <g id="Group_269" data-name="Group 269" transform="translate(-15872 -2706)">
    <text id="Unlimited_Tasks" data-name="Unlimited Tasks" transform="translate(15910 2720)" fill="#fff" font-size="13" font-family="SegoeUI, Segoe UI"><tspan x="0" y="0">Unlimited Tasks</tspan></text>
    <text id="SMS_Task_Reminders" data-name="SMS Task Reminders" transform="translate(15910 2761)" fill="#fff" font-size="13" font-family="SegoeUI, Segoe UI"><tspan x="0" y="0">SMS Task Reminders</tspan></text>
    <text id="Confetti_Explosions_upon_task_completions" data-name="Confetti Explosions upon task completions" transform="translate(15910 2803)" fill="#fff" font-size="13" font-family="SegoeUI, Segoe UI"><tspan x="0" y="0">Confetti Explosions upon task completions</tspan></text>
    <text id="Social_Media_Announcement" data-name="Social Media Announcement" transform="translate(15910 2845)" fill="#fff" font-size="13" font-family="SegoeUI, Segoe UI"><tspan x="0" y="0">Social Media Announcement</tspan></text>
    <text id="Real_Time_Collaboration" data-name="Real Time Collaboration" transform="translate(15910 2887)" fill="#fff" font-size="13" font-family="SegoeUI, Segoe UI"><tspan x="0" y="0">Real Time Collaboration</tspan></text>
    <circle id="Ellipse_1" data-name="Ellipse 1" cx="11" cy="11" r="11" transform="translate(15872 2706)" fill="#59fe6f"/>
    <g id="Group_3" data-name="Group 3" transform="translate(15876.822 2712.076)">
      <path id="Path_4" data-name="Path 4" d="M8.6,15.2a1.513,1.513,0,0,1-1.073-.46L4.46,11.671A1.517,1.517,0,0,1,6.606,9.525L8.6,11.518,13.656,6.46A1.517,1.517,0,0,1,15.8,8.606L9.671,14.737A1.513,1.513,0,0,1,8.6,15.2Z" transform="translate(-4 -6)" fill="#fff"/>
    </g>
    <circle id="Ellipse_1-2" data-name="Ellipse 1" cx="11" cy="11" r="11" transform="translate(15872 2747)" fill="#59fe6f"/>
    <g id="Group_3-2" data-name="Group 3" transform="translate(15876.822 2753.77)">
      <path id="Path_4-2" data-name="Path 4" d="M8.6,15.2a1.513,1.513,0,0,1-1.073-.46L4.46,11.671A1.517,1.517,0,0,1,6.606,9.525L8.6,11.518,13.656,6.46A1.517,1.517,0,0,1,15.8,8.606L9.671,14.737A1.513,1.513,0,0,1,8.6,15.2Z" transform="translate(-4 -6)" fill="#fff"/>
    </g>
    <circle id="Ellipse_1-3" data-name="Ellipse 1" cx="11" cy="11" r="11" transform="translate(15872 2789)" fill="#59fe6f"/>
    <g id="Group_3-3" data-name="Group 3" transform="translate(15876.822 2795.464)">
      <path id="Path_4-3" data-name="Path 4" d="M8.6,15.2a1.513,1.513,0,0,1-1.073-.46L4.46,11.671A1.517,1.517,0,0,1,6.606,9.525L8.6,11.518,13.656,6.46A1.517,1.517,0,0,1,15.8,8.606L9.671,14.737A1.513,1.513,0,0,1,8.6,15.2Z" transform="translate(-4 -6)" fill="#fff"/>
    </g>
    <circle id="Ellipse_1-4" data-name="Ellipse 1" cx="11" cy="11" r="11" transform="translate(15872 2831)" fill="#59fe6f"/>
    <g id="Group_3-4" data-name="Group 3" transform="translate(15876.822 2837.34)">
      <path id="Path_4-4" data-name="Path 4" d="M8.6,15.2a1.513,1.513,0,0,1-1.073-.46L4.46,11.671A1.517,1.517,0,0,1,6.606,9.525L8.6,11.518,13.656,6.46A1.517,1.517,0,0,1,15.8,8.606L9.671,14.737A1.513,1.513,0,0,1,8.6,15.2Z" transform="translate(-4 -6)" fill="#fff"/>
    </g>
    <circle id="Ellipse_1-5" data-name="Ellipse 1" cx="11" cy="11" r="11" transform="translate(15872 2873)" fill="#59fe6f"/>
    <g id="Group_3-5" data-name="Group 3" transform="translate(15876.822 2879.034)">
      <path id="Path_4-5" data-name="Path 4" d="M8.6,15.2a1.513,1.513,0,0,1-1.073-.46L4.46,11.671A1.517,1.517,0,0,1,6.606,9.525L8.6,11.518,13.656,6.46A1.517,1.517,0,0,1,15.8,8.606L9.671,14.737A1.513,1.513,0,0,1,8.6,15.2Z" transform="translate(-4 -6)" fill="#fff"/>
    </g>
    <circle id="Ellipse_1-6" data-name="Ellipse 1" cx="11" cy="11" r="11" transform="translate(15872 2914)" fill="#59fe6f"/>
    <g id="Group_3-6" data-name="Group 3" transform="translate(15876.822 2920.728)">
      <path id="Path_4-6" data-name="Path 4" d="M8.6,15.2a1.513,1.513,0,0,1-1.073-.46L4.46,11.671A1.517,1.517,0,0,1,6.606,9.525L8.6,11.518,13.656,6.46A1.517,1.517,0,0,1,15.8,8.606L9.671,14.737A1.513,1.513,0,0,1,8.6,15.2Z" transform="translate(-4 -6)" fill="#fff"/>
    </g>
    <text id="Other_Awesome_Features" data-name="Other Awesome Features" transform="translate(15910 2928)" fill="#fff" font-size="13" font-family="SegoeUI, Segoe UI"><tspan x="0" y="0">Other Awesome Features</tspan></text>
  </g>
</svg>
